<?xml version="1.0" encoding="UTF-8" standalone="no"?>
<svg
   xmlns:dc="http://purl.org/dc/elements/1.1/"
   xmlns:cc="http://creativecommons.org/ns#"
   xmlns:rdf="http://www.w3.org/1999/02/22-rdf-syntax-ns#"
   xmlns:svg="http://www.w3.org/2000/svg"
   xmlns="http://www.w3.org/2000/svg"
   xmlns:xlink="http://www.w3.org/1999/xlink"
   version="1.1"
   id="svg2"
   viewBox="0 0 527.55953 324.82812"
   height="91.673714mm"
   width="148.88902mm">
  <defs
     id="defs4">
    <linearGradient
       id="linearGradient4351">
      <stop
         id="stop4353"
         offset="0"
         style="stop-color:#ffaebd;stop-opacity:1;" />
      <stop
         id="stop4355"
         offset="1"
         style="stop-color:#ffaebd;stop-opacity:0;" />
    </linearGradient>
    <linearGradient
       gradientTransform="translate(280.75303,84.239762)"
       gradientUnits="userSpaceOnUse"
       y2="617.62726"
       x2="565.90997"
       y1="546.9494"
       x1="571.16986"
       id="linearGradient4357"
       xlink:href="#linearGradient4351" />
  </defs>
  <metadata
     id="metadata7">
    <rdf:RDF>
      <cc:Work
         rdf:about="">
        <dc:format>image/svg+xml</dc:format>
        <dc:type
           rdf:resource="http://purl.org/dc/dcmitype/StillImage" />
        <dc:title></dc:title>
      </cc:Work>
    </rdf:RDF>
  </metadata>
  <g
     transform="translate(-235.37421,-482.96054)"
     id="layer1">
    <g
       transform="matrix(0.94040293,0.34006224,-0.34006224,0.94040293,248.83053,-131.72692)"
       id="g4324">
      <g
         id="g4437">
        <path
           id="rect3348"
           transform="translate(0,308.26772)"
           d="m 729.36719,406.45117 -18.72461,1.63477 1.65625,6.07031 -271.84375,0 c -11.017,0 -28.0653,3.43157 -38.22461,7.69336 l -110.37891,46.30273 -20.75,0.93555 0,9.93164 0,0.084 0.006,0 c 0.0549,1.49716 2.98566,2.43164 8.73047,2.43164 l 280.17383,0 c 11.017,0 28.06531,-3.43157 38.22461,-7.69336 l 123.9414,-51.99219 c 4.82472,-2.02395 7.19702,-3.85963 7.1836,-5.23047 l 0.006,-0.002 0,-10.16602 z"
           style="opacity:1;fill:#acd9ef;fill-opacity:1;stroke:#7dccd6;stroke-width:1.0086863;stroke-miterlimit:4;stroke-dasharray:none;stroke-opacity:0" />
        <rect
           ry="11.144446"
           y="498.67633"
           x="421.94473"
           height="212.37654"
           width="307.4527"
           id="rect3338"
           style="opacity:1;fill:#c7e5f4;fill-opacity:1;stroke:#7dccd6;stroke-width:1.7554965;stroke-miterlimit:4;stroke-dasharray:none;stroke-opacity:0" />
        <path
           id="rect3342"
           d="m 2138.742,1841.6635 280.1734,0 c 11.017,0 19.8863,8.8692 19.8863,19.8862 l 0,134.4051 c 0,11.017 -8.8693,19.8862 -19.8863,19.8862 l -280.1734,0 c -11.017,0 -19.8863,-8.8692 -19.8863,-19.8862 l 0,-134.4051 c 0,-11.017 8.8693,-19.8862 19.8863,-19.8862 z"
           style="opacity:1;fill:#c3e5f4;fill-opacity:1;stroke:#7dccd6;stroke-width:1.62178016;stroke-miterlimit:4;stroke-dasharray:none;stroke-opacity:0"
           transform="matrix(1,0,-0.92214799,0.38683728,0,0)" />
        <path
           id="path4189"
           d="m 729.3033,714.52263 0,9.99999 -11.14797,5.3547 -5.87783,-9.1482 z"
           style="fill:none;fill-rule:evenodd;stroke:#000000;stroke-width:0;stroke-linecap:butt;stroke-linejoin:miter;stroke-miterlimit:4;stroke-dasharray:none;stroke-opacity:1" />
        <rect
           style="opacity:1;fill:#ecdcf1;fill-opacity:1;stroke:#7dccd6;stroke-width:1.56431317;stroke-miterlimit:4;stroke-dasharray:none;stroke-opacity:0"
           id="rect4200"
           width="293.64389"
           height="176.56772"
           x="428.84912"
           y="516.58075"
           ry="0" />
        <circle
           r="3"
           cy="507.19803"
           cx="575.67108"
           id="path4204"
           style="opacity:1;fill:#c5ffb8;fill-opacity:1;stroke:#7dccd6;stroke-width:0.1;stroke-miterlimit:4;stroke-dasharray:none;stroke-opacity:0" />
        <path
           id="path4223"
           transform="translate(0,308.26772)"
           d="m 696.49023,414.23633 -280.35937,0.17187 -53.69727,22.52539 279.70899,0.0996 54.34765,-22.79687 z"
           style="fill:#acd9ef;fill-opacity:1;fill-rule:evenodd;stroke:#000000;stroke-width:0;stroke-linecap:butt;stroke-linejoin:miter;stroke-miterlimit:4;stroke-dasharray:none;stroke-opacity:1" />
        <path
           id="rect4244"
           d="m 648.21166,533.49947 c -4.7566,-0.50408 -23.86163,10.40486 -41.94244,20.89068 -10.0422,-4.72477 -21.83321,-7.443 -34.46928,-7.443 -13.25143,0 -25.56359,2.99772 -35.91387,8.15611 -19.44385,-10.73908 -40.05251,-21.93191 -43.11726,-19.79804 -4.02109,2.79975 6.68944,39.34493 12.50351,62.61162 -0.006,0.28766 -0.027,0.57176 -0.027,0.86057 l 0,21.87939 0,58.87681 c 0,0.99757 0.0446,1.98518 0.11527,2.9685 4e-4,0.006 -4e-4,0.0111 0,0.017 1.66532,23.02598 22.45673,41.9351 50.26422,47.30499 1.20323,0.23237 2.421,0.43556 3.64951,0.61643 0.24437,0.0361 0.49048,0.0675 0.73579,0.10149 0.99729,0.13783 2.00188,0.25713 3.01429,0.36019 0.32341,0.0332 0.64634,0.0671 0.97124,0.0967 0.98536,0.089 1.97676,0.15985 2.97504,0.21515 0.30778,0.0172 0.61322,0.0392 0.92218,0.0532 1.29322,0.0578 2.5946,0.0943 3.90705,0.0943 0.99887,0 1.98987,-0.0215 2.97749,-0.0556 0.37653,-0.0127 0.75091,-0.0307 1.12576,-0.0484 0.6337,-0.0302 1.2648,-0.0697 1.89343,-0.11362 0.3863,-0.0266 0.7733,-0.0505 1.15765,-0.0822 0.86779,-0.0724 1.73024,-0.15578 2.58751,-0.25382 0.52646,-0.0597 1.04738,-0.1315 1.56969,-0.20063 0.36379,-0.0485 0.72725,-0.0968 1.08897,-0.14988 0.63853,-0.0931 1.27383,-0.19272 1.9057,-0.29975 0.003,-4e-4 0.005,4e-4 0.008,0 0.009,-10e-4 0.018,-0.004 0.027,-0.005 29.21985,-4.96221 51.13427,-24.77696 52.15765,-48.86178 0.0249,-0.58442 0.0564,-1.16812 0.0564,-1.7574 l 0,-60.28613 0,-20.47007 c 0,-1.21366 -0.0722,-2.41193 -0.17658,-3.60427 5.34506,-23.42015 14.74434,-58.78635 10.74251,-61.44886 -0.17981,-0.11968 -0.41719,-0.19392 -0.7088,-0.22481 z"
           style="opacity:1;fill:url(#linearGradient4357);fill-opacity:1;stroke:#7dccd6;stroke-width:0;stroke-miterlimit:4;stroke-dasharray:none;stroke-opacity:0" />
        <path
           id="path4283"
           d="m 605.18841,583.3847 a 11.929597,11.757959 0 0 1 -1.53122,16.51857 11.929597,11.757959 0 0 1 -16.76702,-1.42803 11.929597,11.757959 0 0 1 1.36646,-16.53259 11.929597,11.757959 0 0 1 16.78045,1.26557"
           style="opacity:1;fill:#ffffff;fill-opacity:1;stroke:#7dccd6;stroke-width:0;stroke-miterlimit:4;stroke-dasharray:none;stroke-opacity:0" />
        <path
           d="m 601.36044,585.59346 a 2.5114939,2.4753599 0 0 1 -0.32236,3.47759 2.5114939,2.4753599 0 0 1 -3.5299,-0.30064 2.5114939,2.4753599 0 0 1 0.28768,-3.48054 2.5114939,2.4753599 0 0 1 3.53272,0.26643"
           id="path4287"
           style="opacity:1;fill:#280b0b;fill-opacity:1;stroke:#7dccd6;stroke-width:0;stroke-miterlimit:4;stroke-dasharray:none;stroke-opacity:0" />
        <path
           style="opacity:1;fill:#ffffff;fill-opacity:1;stroke:#7dccd6;stroke-width:0;stroke-miterlimit:4;stroke-dasharray:none;stroke-opacity:0"
           d="m 554.95853,583.3847 a 11.929597,11.757959 0 0 1 -1.53122,16.51857 11.929597,11.757959 0 0 1 -16.76702,-1.42803 11.929597,11.757959 0 0 1 1.36646,-16.53259 11.929597,11.757959 0 0 1 16.78045,1.26557"
           id="path4289" />
        <path
           style="opacity:1;fill:#280b0b;fill-opacity:1;stroke:#7dccd6;stroke-width:0;stroke-miterlimit:4;stroke-dasharray:none;stroke-opacity:0"
           id="path4291"
           d="m 551.13052,585.59346 a 2.5114939,2.4753599 0 0 1 -0.32236,3.47759 2.5114939,2.4753599 0 0 1 -3.5299,-0.30064 2.5114939,2.4753599 0 0 1 0.28768,-3.48054 2.5114939,2.4753599 0 0 1 3.53272,0.26643" />
        <path
           transform="matrix(0.48149664,0,0,0.35468044,453.47207,413.49321)"
           d="m 247,567.36218 c -7.78557,0.5023 -18.38118,-15.39032 -14.92339,-22.38397 3.45778,-6.99365 22.519,-8.22341 26.84678,-1.73205 4.32779,6.49135 -4.13782,23.61373 -11.92339,24.11602 z"
           id="path4302"
           style="opacity:1;fill:#acd9ef;fill-opacity:1;stroke:#acd9ef;stroke-width:0;stroke-miterlimit:4;stroke-dasharray:none;stroke-opacity:0" />
        <path
           d="m 540.41447,620.61209 c -55.26927,6.76313 -55.26927,6.76313 -55.26927,6.76313 l 0,0 0,0 m 48.98633,-11.74312 c -53.9129,-3.07982 -54.64145,-3.07982 -54.64145,-3.07982 m 59.66044,-1.86371 c -50.85775,-16.08984 -51.48563,-16.08984 -51.48563,-16.08984"
           style="fill:none;fill-rule:evenodd;stroke:#acd9ef;stroke-width:1.37398875px;stroke-linecap:butt;stroke-linejoin:miter;stroke-opacity:1"
           id="path4308" />
        <path
           id="path4311"
           style="fill:none;fill-rule:evenodd;stroke:#acd9ef;stroke-width:1.37398875px;stroke-linecap:butt;stroke-linejoin:miter;stroke-opacity:1"
           d="m 605.15003,620.61209 c 55.26927,6.76313 55.26927,6.76313 55.26927,6.76313 l 0,0 0,0 M 611.43297,615.6321 c 53.9129,-3.07982 54.64145,-3.07982 54.64145,-3.07982 m -59.66044,-1.86371 c 50.85775,-16.08984 51.48563,-16.08984 51.48563,-16.08984" />
      </g>
    </g>
    <text
       id="text4343"
       y="500.81891"
       x="165.463"
       style="font-style:normal;font-variant:normal;font-weight:normal;font-stretch:normal;font-size:40px;line-height:125%;font-family:Monaco;-inkscape-font-specification:Monaco;letter-spacing:0px;word-spacing:0px;fill:#000000;fill-opacity:1;stroke:none;stroke-width:1px;stroke-linecap:butt;stroke-linejoin:miter;stroke-opacity:1"
       xml:space="preserve"><tspan
         y="500.81891"
         x="165.463"
         id="tspan4345" /></text>
    <text
       id="text4347"
       y="464.04938"
       x="142.83557"
       style="font-style:normal;font-weight:normal;font-size:40px;line-height:125%;font-family:sans-serif;letter-spacing:0px;word-spacing:0px;fill:#000000;fill-opacity:1;stroke:none;stroke-width:1px;stroke-linecap:butt;stroke-linejoin:miter;stroke-opacity:1"
       xml:space="preserve"><tspan
         style="font-style:normal;font-variant:normal;font-weight:normal;font-stretch:normal;font-family:Monaco;-inkscape-font-specification:Monaco"
         y="464.04938"
         x="142.83557"
         id="tspan4349" /></text>
  </g>
</svg>
